<svg xmlns="http://www.w3.org/2000/svg" width="210" height="30" viewBox="0 0 210 30"><defs><style>.a{fill:#ffffff;}</style></defs><title>genoapay_logo</title><path class="a" d="M84.54,11.9A9.89,9.89,0,0,1,84.47,13H68.8A6.18,6.18,0,0,0,71,17.12a7.24,7.24,0,0,0,4.76,1.57,7.14,7.14,0,0,0,5.57-2.36l1.93,2.29A8.44,8.44,0,0,1,80,21a12.17,12.17,0,0,1-9.78-.46A9,9,0,0,1,66.6,17a10.26,10.26,0,0,1-1.3-5.17,10.49,10.49,0,0,1,1.26-5.14A9.11,9.11,0,0,1,70,3.09a9.76,9.76,0,0,1,5-1.28,9.54,9.54,0,0,1,4.94,1.28,8.88,8.88,0,0,1,3.39,3.56A11.05,11.05,0,0,1,84.54,11.9ZM75,4.81a6,6,0,0,0-4.2,1.55,6.24,6.24,0,0,0-2,4.06H81.19a6.38,6.38,0,0,0-2-4A6,6,0,0,0,75,4.81Zm22.59-3A7.94,7.94,0,0,1,103.43,4c1.44,1.44,2.17,3.56,2.17,6.34V21.57h-3.5V10.71a6.05,6.05,0,0,0-1.35-4.28A5,5,0,0,0,96.89,5a6,6,0,0,0-4.48,1.68,6.6,6.6,0,0,0-1.64,4.82V21.57h-3.5V2h3.35V5a6.77,6.77,0,0,1,2.86-2.32A9.75,9.75,0,0,1,97.58,1.81Zm20.76,20a10.36,10.36,0,0,1-5.17-1.29,9.3,9.3,0,0,1-3.59-3.56,10.26,10.26,0,0,1-1.29-5.15,10.27,10.27,0,0,1,1.29-5.16,9.19,9.19,0,0,1,3.59-3.54,11.06,11.06,0,0,1,10.33,0,9.2,9.2,0,0,1,3.57,3.54,10.27,10.27,0,0,1,1.29,5.16,10.26,10.26,0,0,1-1.29,5.15,9.32,9.32,0,0,1-3.57,3.56A10.29,10.29,0,0,1,118.34,21.79Zm0-3.1a6.47,6.47,0,0,0,3.34-.87A6.15,6.15,0,0,0,124,15.39a7.53,7.53,0,0,0,.84-3.6A7.54,7.54,0,0,0,124,8.18a6,6,0,0,0-2.31-2.41,7,7,0,0,0-6.67,0,6,6,0,0,0-2.33,2.41,7.44,7.44,0,0,0-.86,3.61,7.43,7.43,0,0,0,.86,3.6A6.19,6.19,0,0,0,115,17.82,6.41,6.41,0,0,0,118.34,18.69ZM139.06,1.81a8.64,8.64,0,0,1,6.14,2q2.15,2,2.14,5.94V21.57H144V19a5.49,5.49,0,0,1-2.5,2.08,9.4,9.4,0,0,1-3.84.72,8,8,0,0,1-5.19-1.58,5.13,5.13,0,0,1-2-4.18,5.15,5.15,0,0,1,1.86-4.15c1.24-1.05,3.2-1.57,5.9-1.57h5.54v-.7a4.56,4.56,0,0,0-1.31-3.51,5.53,5.53,0,0,0-3.87-1.22,10.17,10.17,0,0,0-3.35.57A8.68,8.68,0,0,0,132.54,7l-1.45-2.65a10.28,10.28,0,0,1,3.57-1.87A14.73,14.73,0,0,1,139.06,1.81Zm-.8,17.25a6.44,6.44,0,0,0,3.46-.9,5.17,5.17,0,0,0,2.12-2.57V12.86h-5.39q-4.45,0-4.45,3a2.77,2.77,0,0,0,1.13,2.33A5.08,5.08,0,0,0,138.26,19.06Zm22.8-16.91a9.33,9.33,0,0,1,4.81,1.25,9,9,0,0,1,3.37,3.47,10.38,10.38,0,0,1,1.22,5.06A10.46,10.46,0,0,1,169.24,17a8.73,8.73,0,0,1-3.37,3.47,9.42,9.42,0,0,1-4.81,1.24,8.79,8.79,0,0,1-4.55-1.2,8.29,8.29,0,0,1-3.17-3.34V28.74h-1.83V2.29h1.75V6.84a8.47,8.47,0,0,1,3.19-3.46A8.81,8.81,0,0,1,161.06,2.15ZM161,20.06a7.6,7.6,0,0,0,3.94-1,7.4,7.4,0,0,0,2.75-2.88,8.76,8.76,0,0,0,1-4.21,8.79,8.79,0,0,0-1-4.21,7.4,7.4,0,0,0-2.75-2.88,7.6,7.6,0,0,0-3.94-1,7.32,7.32,0,0,0-6.65,3.91,8.67,8.67,0,0,0-1,4.21,8.65,8.65,0,0,0,1,4.21A7.43,7.43,0,0,0,157,19,7.51,7.51,0,0,0,161,20.06ZM181.32,2.15A7.53,7.53,0,0,1,186.75,4a7.11,7.11,0,0,1,1.9,5.38V21.57H186.9V18.14a6.39,6.39,0,0,1-2.66,2.64,8.7,8.7,0,0,1-4.19.94,7.72,7.72,0,0,1-5-1.51,4.91,4.91,0,0,1-1.84-4,5,5,0,0,1,1.69-3.9c1.13-1,2.94-1.5,5.41-1.5h6.53V9.27a5.49,5.49,0,0,0-1.44-4.1,5.81,5.81,0,0,0-4.21-1.4,10,10,0,0,0-3.63.67,9,9,0,0,0-2.93,1.77l-.91-1.33a10.18,10.18,0,0,1,3.42-2A12.35,12.35,0,0,1,181.32,2.15Zm-1,18.06a7.07,7.07,0,0,0,4-1.11,6.7,6.7,0,0,0,2.5-3.22V12.27h-6.49a6.38,6.38,0,0,0-4.06,1A3.48,3.48,0,0,0,175,16.14a3.58,3.58,0,0,0,1.39,3A6.19,6.19,0,0,0,180.3,20.21Zm29-17.92-9.76,21.9A8.72,8.72,0,0,1,197,27.81a5.52,5.52,0,0,1-3.41,1.07,6.64,6.64,0,0,1-2.46-.44,5.16,5.16,0,0,1-1.95-1.29l.91-1.41a4.72,4.72,0,0,0,3.53,1.52,3.67,3.67,0,0,0,2.37-.78,6.83,6.83,0,0,0,1.83-2.66l1-2.32L190.28,2.29h1.93l7.62,17.25,7.61-17.25ZM56.4,16.73a5.84,5.84,0,0,0,2.12-2.31,7.09,7.09,0,0,0,.76-3.32,7.24,7.24,0,0,0-.76-3.37A5.72,5.72,0,0,0,53.3,4.59a5.88,5.88,0,0,0-3.12.84A5.82,5.82,0,0,0,48,7.73a7,7,0,0,0-.79,3.37A6.78,6.78,0,0,0,49,15.75a5.65,5.65,0,0,0,4.35,1.81A5.76,5.76,0,0,0,56.4,16.73ZM62.65,1.92V19.2A9.55,9.55,0,0,1,61.46,24a8,8,0,0,1-3.38,3.19A11,11,0,0,1,53,28.33a12.75,12.75,0,0,1-7.79-2.7l1.47-2.47a10,10,0,0,0,2.89,1.73,9.37,9.37,0,0,0,3.28.56,6.48,6.48,0,0,0,4.68-1.67,5.93,5.93,0,0,0,1.75-4.47V16.62a7.15,7.15,0,0,1-2.72,2.71,7.88,7.88,0,0,1-3.92,1,8.44,8.44,0,0,1-4.48-1.18,8.07,8.07,0,0,1-3-3.29A10.61,10.61,0,0,1,44.09,11a10.31,10.31,0,0,1,1.07-4.77,7.91,7.91,0,0,1,3-3.23,8.53,8.53,0,0,1,4.48-1.17,8,8,0,0,1,3.94.95,7,7,0,0,1,2.7,2.69V1.92Z"/><path class="a" d="M23,28.08A5.13,5.13,0,1,0,17.83,23,5.13,5.13,0,0,0,23,28.08ZM23,30A7,7,0,1,1,30,23,7,7,0,0,1,23,30Zm0-17.83a5.13,5.13,0,1,0-5.12-5.12A5.13,5.13,0,0,0,23,12.17Zm0,1.92a7,7,0,1,1,7.05-7A7,7,0,0,1,23,14.09Zm-15.9,14A5.13,5.13,0,1,0,1.92,23,5.13,5.13,0,0,0,7.05,28.08Zm0,1.92a7,7,0,1,1,7-7A7,7,0,0,1,7.05,30Z"/></svg>