<svg xmlns="http://www.w3.org/2000/svg" width="54" height="63" viewBox="0 0 54 63"><defs><style>.a{fill:none;stroke:#00ab8e;stroke-width:1.5px;}.b{fill:#00ab8e;}</style></defs><title>Get it now icon</title><path class="a" d="M15,7c0,6,6.25,12,12.5,18C33.75,19,40,13,40,7a6.25,6.25,0,0,0-6.25-6C30.62,1,29,2.54,27.5,5.6,25.88,2.54,24.38,1,21.25,1A6.17,6.17,0,0,0,15,7Z"/><path class="b" d="M39.44,24a1.57,1.57,0,0,0-.46.05l-.32.09A2.41,2.41,0,0,0,37,27.08l.51,2a2.13,2.13,0,0,0-1.07-.18,2.5,2.5,0,0,0-1.8,3l.42,1.82a2.29,2.29,0,0,0-1.21-.24,2.49,2.49,0,0,0-1.76,3l1.9,7.2v0l.23,1.12v.1a15,15,0,0,0,2.46,8v9.43H38V52.59l-.09-.19c-1.3-2.33-2.36-4.29-2.36-7.57v-.09l-.05-.09-.23-1.22v0l-1.85-7.24a1.08,1.08,0,0,1,.79-1.36,1,1,0,0,1,1.29.75s.05,0,.05,0l1.52,6.54.6,2.57.65-.14.65-.14v0l-.1-.51-2-8.6H36.8v0l-.88-3.64a1.16,1.16,0,0,1,.88-1.36,1,1,0,0,1,1.16.65l1.2,4.63,1.34,5.74.65-.14.6-.14-.41-2.19-1.07-4.3-.92-3.74s-.05,0-.05-.14l-1-3.82A1.15,1.15,0,0,1,39,25.4l.32,0a1,1,0,0,1,1.16.84l3,12.05v0l.33.74v.1l.6-.19.64-.18L42.54,28.16a1.08,1.08,0,0,1,.65-1.31l.32-.09a1,1,0,0,1,1.16.89l2.26,9.57v.05a10.87,10.87,0,0,0,2.32,4.67v1.54a.65.65,0,0,0,.64.65.69.69,0,0,0,.65-.65v-4.2a3.17,3.17,0,0,1,.74-2,1.57,1.57,0,0,1,1.43-.51l0,6.73a2.93,2.93,0,0,1-.1.65v0a.19.19,0,0,0,0,.1A8.08,8.08,0,0,1,52,46c-.09.14-.13.28-.23.42s0,0,0,0a13.34,13.34,0,0,1-.83,1.58,19.65,19.65,0,0,1-1,1.73C48.46,52.12,47,54.41,47,56.69v5.66a.7.7,0,0,0,.64.65.63.63,0,0,0,.65-.65V56.7a3.39,3.39,0,0,1,0-.66A18.45,18.45,0,0,1,51,50.49c1.38-2.29,2.86-4.58,3-6.91v0l0-7.33a.48.48,0,0,0-.19-.42s0-.05,0-.05v0a.14.14,0,0,1-.09,0,3.42,3.42,0,0,0-.24-.09s0,0,0,0-.09,0-.09,0h-.09a3.13,3.13,0,0,0-3,1,3.94,3.94,0,0,0-1.07,2.85v.32a11.54,11.54,0,0,1-1-2.71L45.9,27.38a2.34,2.34,0,0,0-2.73-1.87l-.32.09a1.79,1.79,0,0,0-1,.85l-.14-.57A2.34,2.34,0,0,0,39.44,24Z"/><path class="b" d="M14.56,24a1.57,1.57,0,0,1,.46.05l.32.09A2.41,2.41,0,0,1,17,27.08l-.51,2a2.13,2.13,0,0,1,1.07-.18,2.5,2.5,0,0,1,1.8,3l-.42,1.82a2.29,2.29,0,0,1,1.21-.24,2.49,2.49,0,0,1,1.76,3L20,43.67v0l-.23,1.12v.1a15,15,0,0,1-2.46,8v9.43H16V52.59l.09-.19c1.3-2.33,2.36-4.29,2.36-7.57v-.09l0-.09.23-1.22v0l1.85-7.24a1.08,1.08,0,0,0-.79-1.36,1,1,0,0,0-1.29.75s0,0,0,0l-1.52,6.54-.6,2.57-.65-.14L15,44.41v0l.1-.51,2-8.6h.05v0l.88-3.64a1.16,1.16,0,0,0-.88-1.36,1,1,0,0,0-1.16.65l-1.2,4.63L13.5,41.23l-.65-.14-.6-.14.42-2.19,1.06-4.3.92-3.74s0,0,0-.14l1-3.82A1.16,1.16,0,0,0,15,25.4l-.32,0a1,1,0,0,0-1.16.84l-3,12.05v0l-.32.74v.1L9.62,39,9,38.77l2.49-10.61a1.08,1.08,0,0,0-.65-1.31l-.32-.09a1,1,0,0,0-1.16.89L7.07,37.22v.05a10.87,10.87,0,0,1-2.32,4.67v1.54a.65.65,0,0,1-.64.65.69.69,0,0,1-.65-.65v-4.2a3.17,3.17,0,0,0-.74-2,1.57,1.57,0,0,0-1.43-.51l0,6.73a2.93,2.93,0,0,0,.1.65v0a.19.19,0,0,1,0,.1A8.71,8.71,0,0,0,2,46c.09.14.14.28.23.42s0,0,0,0a13.34,13.34,0,0,0,.83,1.58,19.65,19.65,0,0,0,1,1.73C5.54,52.12,7,54.41,7,56.69v5.66a.7.7,0,0,1-.64.65.63.63,0,0,1-.65-.65V56.7a3.39,3.39,0,0,0,0-.66A18.45,18.45,0,0,0,3,50.49C1.62,48.2.14,45.91.05,43.58v0L0,36.2a.51.51,0,0,1,.19-.42s0-.05,0-.05v0a.14.14,0,0,0,.09,0,.18.18,0,0,0,.1,0,.17.17,0,0,0,.14-.05s0,0,0,0,.09,0,.09,0h.1a3.12,3.12,0,0,1,3,1,3.94,3.94,0,0,1,1.07,2.85v.32a11.54,11.54,0,0,0,1-2.71L8.1,27.38a2.34,2.34,0,0,1,2.73-1.87l.32.09a1.84,1.84,0,0,1,1,.85l.13-.57A2.35,2.35,0,0,1,14.56,24Z"/></svg>