<svg xmlns="http://www.w3.org/2000/svg" width="64" height="47" viewBox="0 0 64 47"><defs><style>.a{fill:#00ab8e;}</style></defs><title>Shopping trolly icon</title><path class="a" d="M.67,0A.76.76,0,0,0,0,.81a.74.74,0,0,0,.81.67H9l5,30.32a4.14,4.14,0,0,0,1.57,2.74,4.65,4.65,0,0,0,2.85.83H54.6a.7.7,0,0,0,.52-.21.71.71,0,0,0,0-1,.7.7,0,0,0-.52-.21H18.49a3.3,3.3,0,0,1-2-.55,2.59,2.59,0,0,1-1-1.8l-.23-1.4L56.19,24.3a.75.75,0,0,0,.6-.51L63.42,1A.75.75,0,0,0,63.3.3a.74.74,0,0,0-.6-.3H.67Zm9.86,1.48H61.71L55.5,22.92,15.06,28.69Zm11.6,36.84a4.07,4.07,0,1,0,4.45,4,4,4,0,0,0-4-4Zm24.32,0a4.24,4.24,0,1,0,.41,0Zm-23.9,1.5a2.52,2.52,0,0,1,2.57,2.53,2.58,2.58,0,1,1-5.15,0A2.53,2.53,0,0,1,22.55,39.82Zm24.31,0a2.53,2.53,0,0,1,2.58,2.53,2.58,2.58,0,1,1-5.16,0A2.53,2.53,0,0,1,46.86,39.82Z"/></svg>