<?xml version="1.0" encoding="UTF-8" standalone="no"?>
<svg
   xmlns:dc="http://purl.org/dc/elements/1.1/"
   xmlns:cc="http://creativecommons.org/ns#"
   xmlns:rdf="http://www.w3.org/1999/02/22-rdf-syntax-ns#"
   xmlns:svg="http://www.w3.org/2000/svg"
   xmlns="http://www.w3.org/2000/svg"
   xmlns:sodipodi="http://sodipodi.sourceforge.net/DTD/sodipodi-0.dtd"
   xmlns:inkscape="http://www.inkscape.org/namespaces/inkscape"
   width="124.39999"
   height="18"
   viewBox="0 0 124.39999 18"
   version="1.1"
   id="svg8"
   sodipodi:docname="genoapay.svg"
   inkscape:version="0.92.3 (2405546, 2018-03-11)">
  <metadata
     id="metadata14">
    <rdf:RDF>
      <cc:Work
         rdf:about="">
        <dc:format>image/svg+xml</dc:format>
        <dc:type
           rdf:resource="http://purl.org/dc/dcmitype/StillImage" />
      </cc:Work>
    </rdf:RDF>
  </metadata>
  <defs
     id="defs12" />
  <sodipodi:namedview
     pagecolor="#ffffff"
     bordercolor="#666666"
     borderopacity="1"
     objecttolerance="10"
     gridtolerance="10"
     guidetolerance="10"
     inkscape:pageopacity="0"
     inkscape:pageshadow="2"
     inkscape:window-width="2411"
     inkscape:window-height="930"
     id="namedview10"
     showgrid="false"
     inkscape:zoom="2.145"
     inkscape:cx="65.263415"
     inkscape:cy="9.533799"
     inkscape:window-x="4836"
     inkscape:window-y="742"
     inkscape:window-maximized="0"
     inkscape:current-layer="g6" />
  <g
     id="g6"
     transform="translate(-42.661993,42.944056)"
     style="fill:none;fill-rule:evenodd">
    <path
       d="m 93.054362,-35.623963 c -0.0017,0.222576 -0.01556,0.444883 -0.04152,0.665883 h -9.293955 c 0.09855,0.973545 0.566988,1.868903 1.304831,2.494035 0.800175,0.649769 1.801267,0.986777 2.82318,0.950396 1.254209,0.04697 2.464221,-0.476296 3.303594,-1.428621 l 1.144693,1.386247 c -0.520852,0.632785 -1.184332,1.127164 -1.933522,1.440728 -1.886453,0.740097 -3.990504,0.63909 -5.800567,-0.27846 -0.901854,-0.489891 -1.647026,-1.233637 -2.14704,-2.142932 -0.5227,-0.955656 -0.788691,-2.035318 -0.771037,-3.12965 -0.01553,-1.085305 0.241758,-2.156559 0.747313,-3.111489 0.468617,-0.905702 1.175102,-1.660309 2.040281,-2.179253 0.902477,-0.5252 1.926802,-0.79284 2.965525,-0.774845 1.027465,-0.01806 2.040351,0.249803 2.929939,0.774845 0.855549,0.510922 1.552465,1.257894 2.010625,2.155039 0.492463,0.9827 0.73901,2.07451 0.717658,3.178077 z M 87.39614,-39.91588 c -0.917855,-0.02697 -1.810397,0.309223 -2.491041,0.938289 -0.682816,0.63886 -1.106085,1.515833 -1.18621,2.457713 h 7.348571 c -0.09621,-0.926769 -0.517517,-1.786773 -1.18621,-2.421392 -0.673624,-0.640799 -1.564394,-0.990141 -2.48511,-0.97461 z m 13.39825,-1.816044 c 1.28341,-0.05881 2.53465,0.420092 3.46372,1.325712 0.85407,0.871701 1.28704,2.155039 1.28704,3.837906 v 6.798059 h -2.07587 v -6.57408 c 0.0684,-0.936462 -0.2182,-1.86397 -0.80068,-2.590889 -0.60596,-0.610653 -1.43988,-0.925969 -2.28939,-0.865648 -0.985554,-0.0517 -1.947884,0.316625 -2.657114,1.016985 -0.69352,0.800671 -1.04385,1.851551 -0.97269,2.917777 v 6.095855 h -2.075868 v -11.846661 h 1.986898 v 1.816044 c 0.42742,-0.619119 1.01457,-1.105242 1.69628,-1.404408 0.76359,-0.353397 1.59334,-0.5331 2.431744,-0.526652 z m 12.31284,12.106961 c -1.07134,0.01702 -2.12843,-0.252182 -3.06635,-0.780899 -0.89112,-0.503879 -1.6281,-1.249791 -2.12924,-2.155039 -0.51861,-0.95267 -0.78248,-2.027847 -0.76511,-3.117543 -0.0181,-1.091707 0.24575,-2.169036 0.76511,-3.123596 0.50013,-0.902938 1.23763,-1.645184 2.12924,-2.142932 1.91681,-1.033211 4.20996,-1.033211 6.12677,0 0.88705,0.499808 1.62022,1.241828 2.11739,2.142932 0.51935,0.95456 0.78324,2.031889 0.7651,3.123596 0.0174,1.089696 -0.24649,2.164873 -0.7651,3.117543 -0.49841,0.903246 -1.23102,1.648876 -2.11739,2.155039 -0.93834,0.526362 -1.99585,0.7915 -3.06635,0.768792 z m 0,-1.876579 c 0.69487,0.01077 1.37955,-0.171262 1.98097,-0.526653 0.58298,-0.35465 1.05746,-0.868271 1.37007,-1.483103 0.34091,-0.672881 0.51214,-1.421868 0.49821,-2.179253 0.0147,-0.759398 -0.15657,-1.510526 -0.49821,-2.185306 -0.31228,-0.608786 -0.78736,-1.114665 -1.37007,-1.458889 -1.23391,-0.682435 -2.7221,-0.682435 -3.95601,0 -0.58709,0.342417 -1.06645,0.848465 -1.38193,1.458889 -0.34815,0.672768 -0.52363,1.424591 -0.51007,2.185306 -0.0128,0.758703 0.16265,1.508381 0.51007,2.179253 0.31541,0.609634 0.78949,1.118639 1.37007,1.470996 0.60072,0.357106 1.28589,0.539261 1.98097,0.526653 z m 12.2832,-10.230382 c 1.32158,-0.092 2.62672,0.341904 3.64167,1.210696 0.85012,0.80713 1.2732,2.00572 1.26924,3.595767 v 7.155214 h -1.98097 v -1.555744 c -0.35831,0.562918 -0.87525,1.001891 -1.48276,1.259124 -0.72089,0.306481 -1.49682,0.454972 -2.27752,0.43585 -1.1039,0.05685 -2.19261,-0.28143 -3.07822,-0.95645 -0.76737,-0.602749 -1.20783,-1.542305 -1.18621,-2.530355 -0.0341,-0.966733 0.37349,-1.894837 1.10318,-2.512194 0.73545,-0.635616 1.89793,-0.950397 3.49932,-0.950397 h 3.2858 v -0.423743 c 0.0512,-0.789156 -0.23171,-1.562821 -0.77697,-2.124772 -0.64578,-0.534131 -1.46616,-0.798093 -2.29531,-0.738524 -0.67658,4.7e-4 -1.34825,0.117114 -1.98691,0.345048 -0.5844,0.20987 -1.12689,0.525678 -1.60138,0.932236 l -0.86,-1.604172 c 0.6257,-0.516225 1.34532,-0.90095 2.11738,-1.132001 0.84474,-0.269321 1.72467,-0.406076 2.60966,-0.405583 z m -0.47448,10.442254 c 0.72072,0.01971 1.43218,-0.169172 2.05214,-0.544813 0.57584,-0.362769 1.01793,-0.909763 1.25739,-1.555745 v -1.652601 h -3.19684 c -1.75954,0 -2.63932,0.605349 -2.63932,1.816045 -0.0189,0.554355 0.23199,1.082388 0.67021,1.410461 0.54565,0.37821 1.19782,0.563226 1.85642,0.526653 z m 13.52279,-10.236436 c 1.00049,-0.01566 1.98641,0.245846 2.85284,0.756685 0.84158,0.500905 1.5328,1.227329 1.99876,2.100558 0.49217,0.941726 0.74119,1.995888 0.72359,3.063061 0.0165,1.06898 -0.2324,2.12483 -0.72359,3.069115 -0.4591,0.878359 -1.15195,1.606499 -1.99876,2.100558 -0.86802,0.506209 -1.85322,0.765433 -2.85284,0.750631 -0.9475,0.01267 -1.88048,-0.238463 -2.69862,-0.726418 -0.80122,-0.479213 -1.45308,-1.180214 -1.88015,-2.021862 v 7.003877 h -1.08538 v -16.011456 h 1.03794 v 2.754333 c 0.42415,-0.866565 1.08014,-1.592767 1.892,-2.094504 0.82695,-0.500154 1.77306,-0.757796 2.73421,-0.744578 z m -0.0356,10.841784 c 0.81835,0.01852 1.62619,-0.190752 2.33684,-0.605348 0.68954,-0.418112 1.25365,-1.021079 1.63104,-1.743403 0.40339,-0.785518 0.60732,-1.661755 0.5931,-2.548515 0.0135,-0.886676 -0.19042,-1.762725 -0.5931,-2.548516 -0.37739,-0.722323 -0.9415,-1.32529 -1.63104,-1.743402 -0.71064,-0.414596 -1.51848,-0.623864 -2.33683,-0.605348 -1.64842,-0.03948 -3.17648,0.877517 -3.94415,2.366911 -0.40557,0.784688 -0.60962,1.661501 -0.5931,2.548515 -0.017,0.887072 0.18705,1.764015 0.5931,2.548515 0.36951,0.694074 0.9116,1.276583 1.57173,1.688922 0.71633,0.436424 1.53834,0.658755 2.37242,0.641669 z m 12.0519,-10.841784 c 1.17624,-0.07503 2.33386,0.327515 3.22056,1.119894 0.80465,0.877404 1.21323,2.058214 1.1269,3.256772 v 7.379193 h -1.03793 v -2.076343 c -0.35758,0.681668 -0.9071,1.23832 -1.57766,1.598118 -0.76878,0.398628 -1.62317,0.594262 -2.48511,0.569028 -1.06254,0.05622 -2.1111,-0.266978 -2.96553,-0.914076 -0.71782,-0.586094 -1.12237,-1.483702 -1.09131,-2.421393 -0.0266,-0.899942 0.34082,-1.765233 1.00235,-2.360857 0.6702,-0.605348 1.74372,-0.908022 3.20869,-0.908022 h 3.87298 v -0.932236 c 0.0619,-0.911988 -0.24704,-1.809722 -0.85407,-2.481927 -0.68972,-0.608496 -1.58758,-0.913237 -2.49697,-0.847487 -0.7361,-0.0023 -1.4662,0.1352 -2.15298,0.405583 -0.64109,0.240396 -1.23102,0.604129 -1.73779,1.071466 l -0.53973,-0.805113 c 0.59193,-0.535253 1.28112,-0.946607 2.02842,-1.210696 0.79523,-0.292182 1.634,-0.441689 2.47918,-0.441904 z m -0.5931,10.932586 c 0.83886,0.02336 1.6653,-0.210711 2.37241,-0.671936 0.68063,-0.476776 1.19888,-1.158061 1.48277,-1.949221 v -2.185307 h -3.84925 c -0.84651,-0.08002 -1.69476,0.133216 -2.40801,0.605348 -0.50721,0.424125 -0.7868,1.068993 -0.75324,1.737349 -0.0319,0.706372 0.27578,1.384226 0.82441,1.816045 0.67987,0.475454 1.49671,0.703602 2.31904,0.647722 z m 17.20004,-10.847837 -5.78871,13.257122 c -0.31267,0.851772 -0.8357,1.606625 -1.51834,2.19136 -0.58514,0.438846 -1.29661,0.666701 -2.02249,0.647722 -0.49848,0.0063 -0.9936,-0.08412 -1.45904,-0.266353 -0.43898,-0.166551 -0.83466,-0.433708 -1.15656,-0.780899 l 0.53973,-0.85354 c 0.5384,0.595951 1.29949,0.930435 2.09366,0.920129 0.5082,0.01499 1.00551,-0.152062 1.40566,-0.472172 0.48268,-0.440494 0.85487,-0.992663 1.08538,-1.610226 l 0.59311,-1.404407 -5.06512,-11.628736 h 1.14469 l 4.51946,10.442254 4.51353,-10.442254 z m -90.697603,8.741226 c 0.536177,-0.340425 0.970976,-0.823971 1.257382,-1.398355 0.308016,-0.622586 0.462733,-1.312406 0.45076,-2.009755 0.01323,-0.707169 -0.141424,-1.407101 -0.45076,-2.040023 -0.588126,-1.188419 -1.791783,-1.927404 -3.096008,-1.900793 -0.65125,-0.0102 -1.292284,0.165953 -1.850487,0.508493 -0.548872,0.333102 -0.996455,0.81507 -1.292969,1.3923 -0.321044,0.629252 -0.482154,1.330704 -0.468553,2.040023 -0.009,1.04181 0.370553,2.048119 1.061658,2.814868 0.662654,0.731243 1.604713,1.131318 2.580006,1.095681 0.637098,0.008 1.263684,-0.166066 1.808971,-0.502439 z m 3.706906,-8.965205 v 10.460414 c 0.01878,1.015007 -0.224645,2.017165 -0.705795,2.905671 -0.466276,0.831982 -1.163956,1.504035 -2.004695,1.93106 -0.93575,0.472795 -1.969013,0.709455 -3.012973,0.690097 -1.674944,-0.0075 -3.300042,-0.582415 -4.620288,-1.63444 l 0.871864,-1.495209 c 0.509233,0.445489 1.08881,0.799595 1.714074,1.047252 0.623452,0.230551 1.2823,0.34536 1.945384,0.338995 1.020102,0.05287 2.018865,-0.310884 2.775731,-1.010931 0.704192,-0.712337 1.081099,-1.69494 1.037934,-2.705906 v -1.628387 c -0.381143,0.686728 -0.939008,1.254015 -1.613245,1.640494 -0.710171,0.404848 -1.511573,0.613507 -2.324972,0.605348 -0.933646,0.01952 -1.854026,-0.227908 -2.657111,-0.714311 -0.764352,-0.480433 -1.380926,-1.170568 -1.779315,-1.991595 -0.437064,-0.915447 -0.654587,-1.923846 -0.634622,-2.941992 -0.01832,-1.000512 0.199335,-1.990852 0.634622,-2.88751 0.399587,-0.810679 1.016658,-1.488774 1.779315,-1.955274 0.804782,-0.481614 1.724367,-0.726731 2.657111,-0.708257 0.814396,-0.01621 1.619166,0.181841 2.336834,0.57508 0.671087,0.381175 1.22543,0.944866 1.601383,1.628386 v -2.148985 z m -23.95219,15.560177 c 1.21977,-0.0098 2.31357,-0.771169 2.77099,-1.928839 0.45742,-1.15767 0.1883,-2.483453 -0.68178,-3.358698 -0.87008,-0.875246 -2.16962,-1.127437 -3.29222,-0.638894 -1.12259,0.488543 -1.84698,1.621525 -1.83512,2.870263 0.0161,1.702152 1.37545,3.069521 3.03813,3.056168 z m 0,1.155087 c -2.27184,0 -4.11353,-1.885443 -4.11353,-4.211255 0,-2.325812 1.84169,-4.211255 4.11353,-4.211255 2.27183,0 4.11352,1.885443 4.11352,4.211255 0,1.116894 -0.43339,2.188043 -1.20482,2.977807 -0.77144,0.789763 -1.81773,1.233448 -2.9087,1.233448 z m 0,-10.726669 c 1.22036,0.0024 2.32178,-0.748614 2.78989,-1.90241 0.46812,-1.153797 0.21057,-2.482705 -0.65236,-3.366139 -0.86293,-0.883435 -2.161,-1.147098 -3.28802,-0.667863 -1.12702,0.479235 -1.86064,1.606818 -1.85826,2.85618 0.003,1.699792 1.3484,3.076922 3.00875,3.080232 z m 0,1.155088 c -2.26794,-0.01658 -4.09488,-1.909309 -4.0841,-4.231166 0.0108,-2.321857 1.85521,-4.196714 4.1232,-4.191225 2.26799,0.0055 4.10374,1.889252 4.1038,4.211135 3e-5,1.122126 -0.43739,2.197859 -1.21519,2.988493 -0.7778,0.790634 -1.83166,1.230778 -2.92771,1.222763 z m -9.34358,8.42251 c 1.66406,-0.01666 3.00018,-1.410586 2.98503,-3.114189 -0.0151,-1.703602 -1.37582,-3.072405 -3.0399,-3.058051 -1.66407,0.01435 -3.00203,1.406434 -2.98913,3.110056 0.0161,1.692729 1.3611,3.056248 3.01462,3.056168 z m 0,1.155087 c -2.27183,0 -4.11352,-1.885443 -4.11352,-4.211255 0,-2.325812 1.84169,-4.211255 4.11352,-4.211255 2.27184,0 4.11353,1.885443 4.11353,4.211255 -0.002,1.121083 -0.43965,2.195266 -1.21728,2.984597 -0.77763,0.789331 -1.83059,1.228651 -2.92563,1.220642 z"
       id="path4"
       inkscape:connector-curvature="0"
       style="fill:#00ab8e;fill-rule:nonzero" />
  </g>
</svg>
