<svg xmlns="http://www.w3.org/2000/svg" width="200" height="42" viewBox="0 0 200 42">
  <g fill="none" fill-rule="evenodd">
    <rect width="198" height="40" x="1" y="1" fill="#FFF" stroke="#00AB8E" stroke-width="2" rx="2"/>
    <path fill="#00AB8E" fill-rule="nonzero" d="M50.3923576 7.32009372C50.3906571 7.5426698 50.3767965 7.7649759 50.3508402 7.98597657L41.0568848 7.98597657C41.1554388 8.95952179 41.623873 9.85487975 42.3617158 10.4800105 43.161891 11.1297802 44.1629832 11.4667883 45.1848957 11.4304069 46.439105 11.477374 47.6491167 10.9541111 48.4884905 10.0017856L49.6331832 11.3880326C49.1123307 12.0208176 48.448851 12.5151972 47.6996609 12.8287609 45.8132079 13.5688577 43.7091567 13.4678513 41.8990939 12.5503008 40.9972398 12.0604101 40.2520675 11.3166635 39.7520538 10.4073687 39.2293544 9.45171324 38.9633635 8.37205176 38.9810173 7.27771936 38.9654828 6.19241434 39.2227747 5.12116077 39.7283296 4.16623041 40.1969467 3.26052843 40.9034325 2.50592103 41.7686108 1.98697746 42.6710877 1.46177738 43.6954135 1.19413701 44.7341359 1.21213196 45.7616006 1.19406948 46.7744872 1.46193536 47.6640746 1.98697746 48.5196238 2.49789943 49.2165397 3.2448713 49.6747005 4.14201649 50.1671631 5.12471677 50.41371 6.21652681 50.3923576 7.32009372zM44.7341359 3.02817609C43.8162809 3.00120955 42.9237391 3.33739936 42.2430948 3.96646556 41.5602788 4.60532563 41.13701 5.48229796 41.0568848 6.42417862L48.4054558 6.42417862C48.3092442 5.49740982 47.8879389 4.63740582 47.2192458 4.00278644 46.545622 3.36198778 45.6548524 3.01264579 44.7341359 3.02817609zM58.1323779 1.21213196C59.4157952 1.15332127 60.6670408 1.63222406 61.5961111 2.53784418 62.4501823 3.40954536 62.883149 4.69288321 62.883149 6.37575077L62.883149 13.1738093 60.8072815 13.1738093 60.8072815 6.59972955C60.875701 5.663267 60.5890629 4.73575958 60.0065897 4.00883992 59.4006297 3.39818708 58.5667104 3.08287087 57.7172044 3.14319222 56.731655 3.09149395 55.7693253 3.45981686 55.060094 4.16017693 54.3665687 4.960848 54.0162393 6.01172841 54.0874018 7.0779545L54.0874018 13.1738093 52.0115343 13.1738093 52.0115343 1.32714809 53.998436 1.32714809 53.998436 3.14319222C54.4258534 2.52407294 55.0130052 2.03795021 55.6947163 1.73878476 56.4583021 1.38538696 57.288048 1.20568449 58.1264468 1.21213196L58.1323779 1.21213196zM70.4452378 13.3190928C69.3738941 13.3361154 68.3168115 13.0669113 67.3788849 12.5381939 66.4877713 12.0343153 65.7507861 11.2884028 65.2496379 10.3831548 64.7310297 9.43048575 64.4671602 8.35530813 64.4845325 7.2656124 64.4663953 6.17390519 64.7302803 5.09657621 65.2496379 4.14201649 65.7497756 3.23907875 66.4872817 2.49683251 67.3788849 1.99908442 69.2956962.96587353 71.5888483.96587353 73.5056596 1.99908442 74.3927034 2.49889216 75.1258772 3.24091206 75.6230445 4.14201649 76.1424021 5.09657621 76.4062871 6.17390519 76.3881499 7.2656124 76.4055222 8.35530813 76.1416527 9.43048575 75.6230445 10.3831548 75.1246341 11.2864009 74.3920323 12.0320308 73.5056596 12.5381939 72.5673135 13.064556 71.5098029 13.3296936 70.4393067 13.3069859L70.4452378 13.3190928zM70.4452378 11.4425139C71.1401032 11.4532797 71.8247902 11.2712516 72.4262085 10.9158611 73.0091905 10.5612113 73.483668 10.0475897 73.7962811 9.43275839 74.1371883 8.75987758 74.3084175 8.01089028 74.2944893 7.25350544 74.3091567 6.49410773 74.1379137 5.74297893 73.7962811 5.068199 73.4840014 4.45941337 73.0089201 3.95353442 72.4262085 3.60931021 71.1922962 2.92687494 69.7041104 2.92687494 68.4701981 3.60931021 67.8831075 3.95172691 67.403752 4.45777568 67.0882635 5.068199 66.7401168 5.74096761 66.5646346 6.49279014 66.5781932 7.25350544 66.5653809 8.01220801 66.7408487 8.76188638 67.0882635 9.43275839 67.4036748 10.042392 67.8777573 10.5513966 68.458336 10.9037541 69.0590624 11.2608604 69.7442252 11.443015 70.4393067 11.4304069L70.4452378 11.4425139zM82.7284424 1.21213196C84.0500205 1.12013329 85.3551606 1.55403596 86.3701071 2.42282805 87.2202243 3.22995877 87.6433059 4.4285479 87.6393518 6.01859543L87.6393518 13.1738093 85.6583811 13.1738093 85.6583811 11.6180648C85.3000634 12.1809833 84.783123 12.6199558 84.1756186 12.8771888 83.4547307 13.1836703 82.6787992 13.3321607 81.8980954 13.3130394 80.7941949 13.3698885 79.7054833 13.0316087 78.8198804 12.3565894 78.0525076 11.7538402 77.6120514 10.8142845 77.6336704 9.82623462 77.5996017 8.85950132 78.0071583 7.93139748 78.7368457 7.31404024 79.4722959 6.6784248 80.6347818 6.36364381 82.2361653 6.36364381L85.521967 6.36364381 85.521967 5.93990018C85.573167 5.15074395 85.2902601 4.37707892 84.7449994 3.81512855 84.0992225 3.28099693 83.278836 3.01703522 82.4496831 3.07660394 81.7731095 3.07707414 81.1014348 3.1937182 80.4627813 3.42165232 79.8783772 3.63152283 79.3358863 3.94733073 78.8613978 4.35388831L78.0013955 2.74971599C78.6270996 2.23349152 79.3467208 1.84876611 80.1187804 1.61771515 80.9635195 1.34839439 81.843449 1.21163928 82.7284424 1.21213196L82.7284424 1.21213196zM82.2539584 11.6543857C82.9746756 11.6740972 83.686142 11.4852136 84.3061017 11.1095725 84.8819404 10.7468044 85.3240318 10.1998099 85.5634843 9.553828L85.5634843 7.90122784 82.3666484 7.90122784C80.6071035 7.90122784 79.7273311 8.50657589 79.7273311 9.71727197 79.7084103 10.2716268 79.9593158 10.79966 80.3975397 11.1277329 80.9431853 11.5059431 81.5953534 11.6909586 82.2539584 11.6543857zM95.7767525 1.4179503C96.7772367 1.40228983 97.7631604 1.66379593 98.6295876 2.17463535 99.4711679 2.67554017 100.162389 3.40196447 100.628351 4.27519306 101.120519 5.21691931 101.369544 6.27108135 101.35194 7.33825416 101.368473 8.40723483 101.119541 9.46308396 100.628351 10.4073687 100.169247 11.2857281 99.4763932 12.0138676 98.6295876 12.5079265 97.7615683 13.0141364 96.7763701 13.2733596 95.7767525 13.258558 94.8292445 13.2712332 93.896269 13.0200945 93.0781247 12.5321404 92.2769115 12.0529274 91.6250462 11.3519265 91.1979819 10.5102779L91.1979819 17.5141548 90.1125997 17.5141548 90.1125997 1.50269902 91.1505335 1.50269902 91.1505335 4.25703262C91.5746875 3.39046777 92.2306802 2.66426486 93.0425384 2.16252839 93.8694921 1.66237424 94.8155957 1.40473237 95.7767525 1.4179503zM95.7411662 12.2597338C96.559514 12.2782502 97.3673559 12.0689818 98.0779999 11.6543857 98.7675415 11.2362739 99.3316466 10.6333072 99.7090387 9.91098335 100.112434 9.1254651 100.316357 8.2492282 100.302144 7.36246808 100.315599 6.47579226 100.11172 5.5997433 99.7090387 4.81395282 99.3316466 4.09162901 98.7675415 3.48866227 98.0779999 3.07055046 97.3673559 2.65595436 96.559514 2.44668593 95.7411662 2.46520241 94.0927449 2.42572161 92.5646876 3.34271942 91.7970179 4.83211326 91.391452 5.61680091 91.1873951 6.49361391 91.2039129 7.38062853 91.1868759 8.26770003 91.3909632 9.1446436 91.7970179 9.92914379 92.1665281 10.6232168 92.7086172 11.2057256 93.3687462 11.6180648 94.085074 12.0544893 94.9070887 12.2768199 95.7411662 12.2597338zM107.79306 1.4179503C108.969304 1.34292322 110.126924 1.74546558 111.01362 2.53784418 111.81827 3.41524797 112.226851 4.59605878 112.14052 5.79461665L112.14052 13.1738093 111.102586 13.1738093 111.102586 11.0974655C110.745014 11.7791343 110.195488 12.3357864 109.524926 12.6955843 108.756153 13.0942116 107.901758 13.2898464 107.039817 13.2646115 105.977278 13.3208346 104.928723 12.9976343 104.074292 12.350536 103.356469 11.7644416 102.95192 10.866834 102.982978 9.92914379 102.956429 9.02920124 103.323805 8.16391053 103.985326 7.56828642 104.655534 6.96293838 105.729054 6.66026435 107.194024 6.66026435L111.067 6.66026435 111.067 5.72802837C111.12888 4.81603996 110.819956 3.91830679 110.212928 3.24610139 109.523214 2.63760486 108.62535 2.33286438 107.715956 2.39861413 106.979858 2.39627678 106.249765 2.53381391 105.562985 2.80419732 104.921893 3.04459316 104.331958 3.40832645 103.825187 3.87566335L103.285462 3.07055046C103.877392 2.53529716 104.566582 2.12394301 105.313881 1.85985437 106.109106 1.56767267 106.947877 1.41816502 107.79306 1.4179503zM107.199955 12.350536C108.038822 12.373895 108.86526 12.1398245 109.572375 11.6785996 110.253 11.2018235 110.771249 10.5205389 111.055137 9.72937894L111.055137 7.5440725 107.205886 7.5440725C106.359382 7.46404746 105.511135 7.67728792 104.79788 8.14942054 104.290671 8.57354533 104.011083 9.21841296 104.044636 9.88676943 104.012695 10.5931414 104.320416 11.2709952 104.869052 11.7028136 105.548922 12.178268 106.36576 12.4064157 107.188093 12.350536L107.199955 12.350536zM124.4 1.50269902L118.611295 14.7598212C118.298617 15.6115926 117.775594 16.3664463 117.092946 16.9511811 116.507813 17.3900268 115.796343 17.6178824 115.070458 17.5989035 114.571979 17.6051715 114.076865 17.5147866 113.61142 17.3325504 113.172439 17.1659988 112.776764 16.8988416 112.454865 16.5516514L112.994591 15.6981106C113.532994 16.2940623 114.294077 16.6285458 115.088251 16.6182397 115.596453 16.6332287 116.093764 16.4661783 116.49391 16.1460682 116.976591 15.7055735 117.348783 15.1534045 117.579292 14.5358424L118.172397 13.1314349 113.107281 1.50269902 114.251973 1.50269902 118.771434 11.9449528 123.284963 1.50269902 124.4 1.50269902zM33.7023828 10.2439248C34.2385602 9.90349993 34.6733586 9.41995409 34.9597654 8.84557079 35.2677812 8.22298474 35.4224983 7.53316386 35.4105252 6.83581529 35.4237567 6.12864645 35.269101 5.42871449 34.9597654 4.79579238 34.3716394 3.60737332 33.1679817 2.86838822 31.8637573 2.89499952 31.212507 2.88480339 30.5714732 3.06095198 30.0132697 3.40349188 29.4643983 3.73659426 29.0168155 4.21856238 28.7203007 4.79579238 28.3992571 5.4250444 28.2381474 6.12649622 28.2517478 6.83581529 28.2427606 7.87762566 28.6223007 8.88393421 29.3134058 9.65068369 29.9760596 10.3819264 30.9181194 10.7820014 31.8934125 10.7463636 32.5305102 10.7543317 33.157096 10.5802984 33.7023828 10.2439248L33.7023828 10.2439248zM37.4092891 1.27872025L37.4092891 11.7391344C37.4280707 12.7541407 37.1846439 13.7562986 36.7034941 14.644805 36.2372176 15.4767868 35.5395382 16.1488396 34.6987992 16.5758653 33.7630494 17.0486598 32.7297856 17.2853204 31.6858258 17.2659621 30.0108817 17.2584298 28.3857844 16.6835471 27.0655378 15.6315224L27.9374021 14.1363127C28.446635 14.5818018 29.0262124 14.9359078 29.6514756 15.1835648 30.2749283 15.4141164 30.9337763 15.5289246 31.59686 15.5225597 32.6169619 15.5754292 33.6157249 15.2116761 34.3725914 14.5116285 35.0767826 13.7992916 35.4536904 12.8166885 35.4105252 11.8057227L35.4105252 10.1773365C35.0293818 10.8640637 34.4715171 11.4313506 33.7972796 11.8178297 33.0871086 12.2226779 32.2857072 12.4313372 31.472308 12.4231777 30.5386625 12.4426954 29.6182823 12.1952697 28.8151975 11.708867 28.0508454 11.2284339 27.4342708 10.5382992 27.0358825 9.71727197 26.5988183 8.80182496 26.3812948 7.79342629 26.4012602 6.77528048 26.3829361 5.77476863 26.6005949 4.78442818 27.0358825 3.88777031 27.4354686 3.07709086 28.0525399 2.39899647 28.8151975 1.93249613 29.6199791 1.45088198 30.5395645 1.20576497 31.472308 1.22423892 32.2867036 1.20803115 33.0914739 1.40608025 33.8091417 1.79931956 34.4802285 2.18049411 35.0345723 2.74418532 35.4105252 3.4277058L35.4105252 1.27872025 37.4092891 1.27872025zM13.4570952 16.8388968C14.6768728 16.8291007 15.7706708 16.0677278 16.22809 14.9100577 16.6855093 13.7523876 16.4163894 12.4266048 15.5463099 11.5513595 14.6762303 10.6761142 13.3766896 10.4239231 12.2540925 10.9124661 11.1314955 11.4010092 10.4071134 12.5339913 10.4189649 13.7827289 10.4351197 15.4848813 11.794418 16.8522499 13.4570952 16.8388968L13.4570952 16.8388968zM13.4570952 17.9939839C11.1852594 17.9939839 9.34357262 16.1085408 9.34357262 13.7827289 9.34357262 11.456917 11.1852594 9.57147388 13.4570952 9.57147388 15.7289309 9.57147388 17.5706177 11.456917 17.5706177 13.7827289 17.5706177 14.8996232 17.13723 15.9707724 16.3657948 16.7605359 15.5943597 17.5502994 14.5480692 17.9939839 13.4570952 17.9939839zM13.4570952 7.26731577C14.6774632 7.26974881 15.7788779 6.51870177 16.246991 5.36490521 16.7151041 4.21110865 16.4575594 2.88220057 15.5946272 1.99876619 14.7316951 1.1153318 13.4336276.85166807 12.3066077 1.33090301 11.1795878 1.81013794 10.4459707 2.93772101 10.4483472 4.18708353 10.4515806 5.8868758 11.7967507 7.26400556 13.4570952 7.26731577zM13.4570952 8.42240287C11.1891548 8.40581799 9.36222064 6.51309433 9.3730014 4.19123739 9.38378216 1.86938046 11.2282098-.00547682592 13.4962017.0000120211743 15.7641935.00550086827 17.5999421 1.88926467 17.6 4.21114784 17.600028 5.33327347 17.1626092 6.40900659 16.3848075 7.19964051 15.6070059 7.99027444 14.5531512 8.43041805 13.4570952 8.42240287zM4.11352254 16.8449129C5.77757859 16.8282567 7.11369438 15.4343274 7.09854924 13.7307244 7.08340409 12.0271215 5.72272744 10.6583195 4.05865091 10.6726733 2.39457439 10.6870271 1.05661968 12.0791066 1.06951586 13.7827289 1.08563207 15.475458 2.4306165 16.8389772 4.08414023 16.8388968L4.11352254 16.8449129zM4.11352254 18C1.84168677 18 2.77277737e-16 16.1145569 0 13.788745-2.77277737e-16 11.4629331 1.84168677 9.57748996 4.11352254 9.57748996 6.3853583 9.57748996 8.22704508 11.4629331 8.22704508 13.788745 8.22550864 14.9098275 7.78740019 15.9840108 7.00976948 16.7733417 6.23213877 17.5626726 5.17917846 18.0019928 4.08414023 17.9939839L4.11352254 18z" transform="translate(38 13)"/>
  </g>
</svg>
