<?xml version="1.0" encoding="utf-8"?>
<!-- Generator: Adobe Illustrator 25.2.1, SVG Export Plug-In . SVG Version: 6.00 Build 0)  -->
<svg version="1.1" id="Layer_1" xmlns="http://www.w3.org/2000/svg" xmlns:xlink="http://www.w3.org/1999/xlink" x="0px" y="0px"
	 viewBox="0 0 150 21" style="enable-background:new 0 0 150 21;" xml:space="preserve">
<style type="text/css">
	.st0{filter:url(#Adobe_OpacityMaskFilter);}
	.st1{fill-rule:evenodd;clip-rule:evenodd;fill:#FFFFFF;}
	.st2{mask:url(#mask-3_1_);fill-rule:evenodd;clip-rule:evenodd;fill:#0046AA;}
	.st3{fill-rule:evenodd;clip-rule:evenodd;fill:#0046AA;}
	.st4{filter:url(#Adobe_OpacityMaskFilter_1_);}
	.st5{mask:url(#mask-5_1_);fill-rule:evenodd;clip-rule:evenodd;fill:#0046AA;}
</style>
<g id="Lightbox">
	<g id="lightbox-biggerbuys-650w" transform="translate(-50.000000, -30.000000)">
		<g id="lightbox-banner-biggerbuys_650w" transform="translate(0.000000, -0.000000)">
			<g id="Latitude-Logo-White-Copy" transform="translate(50.000000, 30.000000)">
				<g id="Group-11">
					<g id="Group-3" transform="translate(0.000000, 0.226858)">
						<g id="Clip-2">
						</g>
						<defs>
							<filter id="Adobe_OpacityMaskFilter" filterUnits="userSpaceOnUse" x="0" y="0" width="114.3" height="20.4">
								<feColorMatrix  type="matrix" values="1 0 0 0 0  0 1 0 0 0  0 0 1 0 0  0 0 0 1 0"/>
							</filter>
						</defs>
						<mask maskUnits="userSpaceOnUse" x="0" y="0" width="114.3" height="20.4" id="mask-3_1_">
							<g class="st0">
								<polygon id="path-2_1_" class="st1" points="0,0 114.3,0 114.3,20.4 0,20.4 								"/>
							</g>
						</mask>
						<path id="Fill-1" class="st2" d="M89,10.6c0,1.6-0.6,2.9-2.5,2.9c-1.9,0-2.5-1.3-2.5-2.9V5.7h-1.3v5.1c0,1.7,0.7,4,3.8,4
							c3.1,0,3.8-2.2,3.8-4V5.7H89V10.6z M102.2,10.2c0-2.1-1.6-3.2-3.5-3.2h-2.3v6.4h2.3C100.6,13.4,102.2,12.2,102.2,10.2
							L102.2,10.2z M103.5,10.2c0,2.9-2.1,4.5-4.7,4.5h-3.7v-9h3.7C101.4,5.7,103.5,7.3,103.5,10.2L103.5,10.2z M48.2,10.8L46.5,7
							l-1.7,3.8H48.2z M47.2,5.7l4.1,9h-1.3l-1.1-2.6h-4.5l-1.1,2.6h-1.3l4.1-9H47.2z M53.2,7h3.1v7.7h1.3V7h3.1V5.7h-7.4V7z
							 M70.8,7h3.1v7.7h1.3V7h3.1V5.7h-7.4V7z M65.1,14.7h1.3v-9h-1.3V14.7z M114.3,7V5.7h-6.5v9h6.5v-1.3H109v-2.6h4.5V9.5H109V7
							H114.3z M33.3,5.7h-1.3v9h6.5v-1.3h-5.2V5.7z M3.6,0H0v20.4h20.4v-3.6H3.6V0z M13,3.6c1,0,1.8-0.8,1.8-1.8C14.8,0.8,14,0,13,0
							s-1.8,0.8-1.8,1.8C11.2,2.8,12,3.6,13,3.6L13,3.6z M18.6,11.2c-1,0-1.8,0.8-1.8,1.8s0.8,1.8,1.8,1.8s1.8-0.8,1.8-1.8
							S19.6,11.2,18.6,11.2L18.6,11.2z M7.4,3.6c1,0,1.8-0.8,1.8-1.8c0-1-0.8-1.8-1.8-1.8S5.6,0.8,5.6,1.8C5.6,2.8,6.4,3.6,7.4,3.6
							L7.4,3.6z M18.6,5.6c-1,0-1.8,0.8-1.8,1.8s0.8,1.8,1.8,1.8s1.8-0.8,1.8-1.8S19.6,5.6,18.6,5.6L18.6,5.6z M20.4,1.8
							c0,1-0.8,1.8-1.8,1.8s-1.8-0.8-1.8-1.8c0-1,0.8-1.8,1.8-1.8S20.4,0.8,20.4,1.8L20.4,1.8z"/>
					</g>
					<path id="Fill-4" class="st3" d="M125,10.2c0.3-0.2,0.4-0.6,0.4-1c0-0.4-0.1-0.8-0.4-1c-0.3-0.2-0.6-0.4-1.1-0.4h-1.5v2.7h1.5
						C124.3,10.5,124.7,10.4,125,10.2 M126.6,6.7c0.6,0.6,0.9,1.3,0.9,2.3c0,1.1-0.3,1.9-0.9,2.5c-0.6,0.6-1.5,0.9-2.7,0.9h-1.6v2.5
						H120v-9h3.9C125.1,5.9,126,6.2,126.6,6.7"/>
					<path id="Fill-6" class="st3" d="M133.4,11.5h2.5l-1.2-3.2L133.4,11.5z M137.1,14.9l-0.6-1.6h-3.9l-0.6,1.6h-2.4l3.8-9h2.4
						l3.8,9H137.1z"/>
					<g id="Group-10" transform="translate(140.672958, 5.896670)">
						<g id="Clip-9">
						</g>
						<defs>
							<filter id="Adobe_OpacityMaskFilter_1_" filterUnits="userSpaceOnUse" x="0.2" y="0" width="8.9" height="9">
								<feColorMatrix  type="matrix" values="1 0 0 0 0  0 1 0 0 0  0 0 1 0 0  0 0 0 1 0"/>
							</filter>
						</defs>
						<mask maskUnits="userSpaceOnUse" x="0.2" y="0" width="8.9" height="9" id="mask-5_1_">
							<g class="st4">
								<polygon id="path-4_1_" class="st1" points="0.2,0 9.1,0 9.1,9 0.2,9 								"/>
							</g>
						</mask>
						<polygon id="Fill-8" class="st5" points="9.1,0 5.9,6.1 5.9,9 3.5,9 3.5,6.2 0.2,0 2.6,0 4.7,3.9 6.8,0 						"/>
					</g>
				</g>
			</g>
		</g>
	</g>
</g>
</svg>
