<?xml version="1.0" encoding="UTF-8"?>
<svg width="124px" height="17px" viewBox="0 0 124 17" version="1.1" xmlns="http://www.w3.org/2000/svg" xmlns:xlink="http://www.w3.org/1999/xlink">
    <!-- Generator: Sketch 56.2 (81672) - https://sketch.com -->
    <title>LatitudePay_Logo_Horiz_Blue_RGB</title>
    <desc>Created with Sketch.</desc>
    <g id="🖥-LatitudePay_D" stroke="none" stroke-width="1" fill="none" fill-rule="evenodd">
        <g id="ProductPage1_LatitudePay_HNAU_D" transform="translate(-953.000000, -530.000000)" fill="#006AFF" fill-rule="nonzero">
            <g id="Module/Price/Product-Page/1440px" transform="translate(937.000000, 272.000000)">
                <g id="Amount" transform="translate(0.000000, 10.000000)">
                    <g id="Interest-Free" transform="translate(16.000000, 232.000000)">
                        <g id="Group-2" transform="translate(0.000000, 16.000000)">
                            <g id="Installments">
                                <g id="LatitudePay_Logo_Horiz_Blue_RGB">
                                    <path d="M16.8388091,1.47769231 C16.8388091,2.295 16.178634,2.95538462 15.3664448,2.95538462 C14.5542557,2.95538462 13.8940806,2.29282051 13.8940806,1.47769231 C13.8940806,0.660384615 14.5542557,0 15.3664448,0 C16.178634,0 16.8388091,0.662564103 16.8388091,1.47769231 Z M15.3664448,4.64884615 C14.5520841,4.64884615 13.8940806,5.31141026 13.8940806,6.12653846 C13.8940806,6.94384615 14.5542557,7.60423077 15.3664448,7.60423077 C16.178634,7.60423077 16.8388091,6.94166667 16.8388091,6.12653846 C16.8388091,5.30923077 16.1808056,4.64884615 15.3664448,4.64884615 Z M6.10444834,2.9575641 C6.91880911,2.9575641 7.57681261,2.295 7.57681261,1.47987179 C7.57681261,0.662564103 6.91663748,0.00217948718 6.10444834,0.00217948718 C5.29225919,0.00217948718 4.63207872,0.66474359 4.63207872,1.47987179 C4.62991243,2.295 5.29008757,2.9575641 6.10444834,2.9575641 Z M15.3664448,9.29551282 C14.5520841,9.29551282 13.8940806,9.95807692 13.8940806,10.7732051 C13.8940806,11.5905128 14.5542557,12.2508974 15.3664448,12.2508974 C16.178634,12.2508974 16.8388091,11.5883333 16.8388091,10.7732051 C16.8388091,9.95807692 16.1808056,9.29551282 15.3664448,9.29551282 Z M10.7343608,2.9575641 C11.5487215,2.9575641 12.206725,2.295 12.206725,1.47987179 C12.206725,0.662564103 11.5465499,0.00217948718 10.7343608,0.00217948718 C9.92217163,0.00217948718 9.2619965,0.66474359 9.2619965,1.47987179 C9.2619965,2.295 9.92217163,2.9575641 10.7343608,2.9575641 Z M2.94690018,0 L0,0 L0,16.8997436 L16.8388091,16.8997436 L16.8388091,13.9421795 L2.94690018,13.9421795 L2.94690018,0 Z M27.5775131,4.72512821 L26.5177583,4.72512821 L26.5177583,12.1680769 L31.8990543,12.1680769 L31.8990543,11.1044872 L27.5775131,11.1044872 L27.5775131,4.72512821 L27.5775131,4.72512821 Z M94.5309982,5.78871795 L94.5309982,4.72512821 L89.1497023,4.72512821 L89.1497023,12.1680769 L94.5309982,12.1680769 L94.5309982,11.1044872 L90.2094571,11.1044872 L90.2094571,8.97730769 L93.9272855,8.97730769 L93.9272855,7.91371795 L90.2094571,7.91371795 L90.2094571,5.78653846 L94.5309982,5.78653846 L94.5309982,5.78871795 Z M53.8368476,12.1680769 L54.8966025,12.1680769 L54.8966025,4.72512821 L53.8368476,4.72512821 L53.8368476,12.1680769 Z M58.584028,5.78871795 L61.1204904,5.78871795 L61.1204904,12.1680769 L62.1802452,12.1680769 L62.1802452,5.78871795 L64.7167075,5.78871795 L64.7167075,4.72512821 L58.5818564,4.72512821 L58.5818564,5.78871795 L58.584028,5.78871795 Z M44.0145709,5.78871795 L46.5510333,5.78871795 L46.5510333,12.1680769 L47.6107881,12.1680769 L47.6107881,5.78871795 L50.1472504,5.78871795 L50.1472504,4.72512821 L44.0123993,4.72512821 L44.0123993,5.78871795 L44.0145709,5.78871795 Z M39.0154816,4.72512821 L42.3836778,12.1680769 L41.2718039,12.1680769 L40.3423468,10.0408974 L36.6288616,10.0408974 L35.6994046,12.1680769 L34.6092469,12.1680769 L37.9665849,4.72512821 L39.0154816,4.72512821 Z M39.8776182,8.97730769 L38.4834326,5.78653846 L37.0914186,8.97730769 L39.8776182,8.97730769 Z M85.5904028,8.44769231 C85.5904028,10.8385897 83.8422417,12.1680769 81.6858144,12.1680769 L78.634676,12.1680769 L78.634676,4.72512821 L81.6858144,4.72512821 C83.8422417,4.72512821 85.5904028,6.05679487 85.5904028,8.44769231 Z M84.5176182,8.44769231 C84.5176182,6.74115385 83.232014,5.78871795 81.611979,5.78871795 L79.6944308,5.78871795 L79.6944308,11.1066667 L81.611979,11.1066667 C83.232014,11.1044872 84.5176182,10.1542308 84.5176182,8.44769231 Z M73.5856392,8.79858974 C73.5856392,10.1389744 73.0535902,11.1982051 71.5095622,11.1982051 C69.9655342,11.1982051 69.4334851,10.1389744 69.4334851,8.79858974 L69.4334851,4.72512821 L68.3737303,4.72512821 L68.3737303,8.95769231 C68.3737303,10.3896154 68.942697,12.2530769 71.5095622,12.2530769 C74.0764273,12.2530769 74.645394,10.3874359 74.645394,8.95769231 L74.645394,4.72512821 L73.5856392,4.72512821 L73.5856392,8.79858974 Z" id="Shape"></path>
                                    <g id="Group" transform="translate(99.243433, 4.576923)">
                                        <path d="M5.51810858,0.832564103 C6.03929947,1.28807692 6.30206655,1.93102564 6.30206655,2.75923077 C6.30206655,3.6375641 6.0414711,4.3175641 5.51810858,4.80358974 C4.99691769,5.28961538 4.26290718,5.53153846 3.31824869,5.53153846 L1.9957268,5.53153846 L1.9957268,7.59115385 L0.0586339755,7.59115385 L0.0586339755,0.148205128 L3.31824869,0.148205128 C4.26290718,0.148205128 4.99691769,0.377051282 5.51810858,0.832564103 Z M4.13695271,3.68333333 C4.35194396,3.485 4.45835377,3.19948718 4.45835377,2.8224359 C4.45835377,2.46064103 4.34977233,2.18384615 4.13695271,1.98987179 C3.92196147,1.79589744 3.61576182,1.69782051 3.22269702,1.69782051 L1.9957268,1.69782051 L1.9957268,3.97974359 L3.22269702,3.97974359 C3.61793345,3.98192308 3.92196147,3.88166667 4.13695271,3.68333333 Z" id="Shape"></path>
                                        <path d="M14.2024518,7.59115385 L13.6942907,6.27474359 L10.4889667,6.27474359 L9.96994746,7.59115385 L7.98073555,7.59115385 L11.1643433,0.148205128 L13.1535552,0.148205128 L16.2633275,7.59115385 L14.2024518,7.59115385 Z M11.0709632,4.78833333 L13.1231524,4.78833333 L12.1068301,2.13371795 L11.0709632,4.78833333 Z" id="Shape"></path>
                                        <polygon id="Path" points="24.6545009 0.148205128 21.9768827 5.21333333 21.9768827 7.59115385 20.0397898 7.59115385 20.0397898 5.26564103 17.3100525 0.148205128 19.2471454 0.148205128 21.003993 3.34333333 22.7174081 0.148205128"></polygon>
                                    </g>
                                </g>
                            </g>
                        </g>
                    </g>
                </g>
            </g>
        </g>
    </g>
</svg>